<mxfile host="65bd71144e">
    <diagram id="ypNgHtK_cnsTJMlkypur" name="Phase 3 â€“ Functional requirements and application architecture">
        <mxGraphModel dx="1513" dy="690" grid="1" gridSize="10" guides="1" tooltips="1" connect="1" arrows="1" fold="1" page="1" pageScale="1" pageWidth="850" pageHeight="1100" background="#ffffff" math="0" shadow="0">
            <root>
                <mxCell id="0"/>
                <mxCell id="1" parent="0"/>
                <mxCell id="129" value="" style="rounded=1;whiteSpace=wrap;html=1;" parent="1" vertex="1">
                    <mxGeometry x="-800" y="24.75" width="1530" height="820" as="geometry"/>
                </mxCell>
                <mxCell id="38" value="" style="rounded=0;whiteSpace=wrap;html=1;" parent="1" vertex="1">
                    <mxGeometry x="532.5" y="281" width="80" height="490" as="geometry"/>
                </mxCell>
                <mxCell id="R2yVV-g7roi1aGbfgLEV-1" value="" style="shape=datastore;whiteSpace=wrap;html=1;" parent="1" vertex="1">
                    <mxGeometry x="652.5" y="604.75" width="60" height="60" as="geometry"/>
                </mxCell>
                <mxCell id="2" value="" style="shape=actor;whiteSpace=wrap;html=1;" parent="1" vertex="1">
                    <mxGeometry x="-740" y="480" width="40" height="60" as="geometry"/>
                </mxCell>
                <mxCell id="9" value="" style="shape=or;whiteSpace=wrap;html=1;rotation=-180;" parent="1" vertex="1">
                    <mxGeometry x="-615" y="460" width="60" height="100" as="geometry"/>
                </mxCell>
                <mxCell id="10" value="Load&lt;br&gt;Balancer" style="text;html=1;align=center;verticalAlign=middle;resizable=0;points=[];autosize=1;strokeColor=none;fillColor=none;" parent="1" vertex="1">
                    <mxGeometry x="-620" y="490" width="70" height="40" as="geometry"/>
                </mxCell>
                <mxCell id="12" value="" style="rounded=0;whiteSpace=wrap;html=1;" parent="1" vertex="1">
                    <mxGeometry x="-470" y="470" width="80" height="60" as="geometry"/>
                </mxCell>
                <mxCell id="11" value="" style="rounded=0;whiteSpace=wrap;html=1;" parent="1" vertex="1">
                    <mxGeometry x="-480" y="480" width="80" height="60" as="geometry"/>
                </mxCell>
                <mxCell id="5" value="Server&lt;br&gt;Entrypoint" style="rounded=0;whiteSpace=wrap;html=1;" parent="1" vertex="1">
                    <mxGeometry x="-490" y="490" width="80" height="60" as="geometry"/>
                </mxCell>
                <mxCell id="16" value="Users" style="text;html=1;align=center;verticalAlign=middle;resizable=0;points=[];autosize=1;strokeColor=none;fillColor=none;" parent="1" vertex="1">
                    <mxGeometry x="652.5" y="664.75" width="60" height="30" as="geometry"/>
                </mxCell>
                <mxCell id="DDFgqJIRZyD7DjnSiCl7-17" value="" style="shape=datastore;whiteSpace=wrap;html=1;" parent="1" vertex="1">
                    <mxGeometry x="652.5" y="504.75" width="60" height="60" as="geometry"/>
                </mxCell>
                <mxCell id="18" value="" style="shape=datastore;whiteSpace=wrap;html=1;" parent="1" vertex="1">
                    <mxGeometry x="652.5" y="404.75" width="60" height="60" as="geometry"/>
                </mxCell>
                <mxCell id="19" value="Post" style="text;html=1;align=center;verticalAlign=middle;resizable=0;points=[];autosize=1;strokeColor=none;fillColor=none;" parent="1" vertex="1">
                    <mxGeometry x="657.5" y="464.75" width="50" height="30" as="geometry"/>
                </mxCell>
                <mxCell id="R2yVV-g7roi1aGbfgLEV-24" value="Animes" style="text;html=1;align=center;verticalAlign=middle;resizable=0;points=[];autosize=1;strokeColor=none;fillColor=none;" parent="1" vertex="1">
                    <mxGeometry x="647.5" y="564.75" width="70" height="30" as="geometry"/>
                </mxCell>
                <mxCell id="29" value="Logger&lt;br&gt;Repository" style="whiteSpace=wrap;html=1;aspect=fixed;" parent="1" vertex="1">
                    <mxGeometry x="542.5" y="302.25" width="60" height="60" as="geometry"/>
                </mxCell>
                <mxCell id="30" value="" style="shape=datastore;whiteSpace=wrap;html=1;" parent="1" vertex="1">
                    <mxGeometry x="652.5" y="302.25" width="60" height="60" as="geometry"/>
                </mxCell>
                <mxCell id="31" value="Logs" style="text;html=1;align=center;verticalAlign=middle;resizable=0;points=[];autosize=1;strokeColor=none;fillColor=none;" parent="1" vertex="1">
                    <mxGeometry x="657.5" y="362.25" width="50" height="30" as="geometry"/>
                </mxCell>
                <mxCell id="34" value="&lt;span style=&quot;color: rgb(0, 0, 0); text-wrap-mode: nowrap;&quot;&gt;Post&lt;/span&gt;&lt;br&gt;&lt;span style=&quot;color: rgb(0, 0, 0);&quot;&gt;Repository&lt;/span&gt;" style="whiteSpace=wrap;html=1;aspect=fixed;" parent="1" vertex="1">
                    <mxGeometry x="542.5" y="404.75" width="60" height="60" as="geometry"/>
                </mxCell>
                <mxCell id="35" value="Anime&lt;br&gt;&lt;span style=&quot;color: rgb(0, 0, 0);&quot;&gt;Repository&lt;/span&gt;" style="whiteSpace=wrap;html=1;aspect=fixed;" parent="1" vertex="1">
                    <mxGeometry x="542.5" y="504.75" width="60" height="60" as="geometry"/>
                </mxCell>
                <mxCell id="36" value="User&lt;br&gt;&lt;span style=&quot;color: rgb(0, 0, 0);&quot;&gt;Repository&lt;/span&gt;" style="whiteSpace=wrap;html=1;aspect=fixed;" parent="1" vertex="1">
                    <mxGeometry x="542.5" y="604.75" width="60" height="60" as="geometry"/>
                </mxCell>
                <mxCell id="39" value="Tier 3" style="text;html=1;align=center;verticalAlign=middle;resizable=0;points=[];autosize=1;strokeColor=none;fillColor=none;" parent="1" vertex="1">
                    <mxGeometry x="547.5" y="249" width="50" height="30" as="geometry"/>
                </mxCell>
                <mxCell id="43" value="Label&lt;br&gt;Generation" style="rounded=0;whiteSpace=wrap;html=1;" parent="1" vertex="1">
                    <mxGeometry x="-296.75" y="220" width="87.5" height="60" as="geometry"/>
                </mxCell>
                <mxCell id="45" value="" style="shape=datastore;whiteSpace=wrap;html=1;" parent="1" vertex="1">
                    <mxGeometry x="652.5" y="701" width="60" height="60" as="geometry"/>
                </mxCell>
                <mxCell id="46" value="Topics" style="text;html=1;align=center;verticalAlign=middle;resizable=0;points=[];autosize=1;strokeColor=none;fillColor=none;" parent="1" vertex="1">
                    <mxGeometry x="652.5" y="761" width="60" height="30" as="geometry"/>
                </mxCell>
                <mxCell id="47" value="Topic&lt;br&gt;&lt;span style=&quot;color: rgb(0, 0, 0);&quot;&gt;Repository&lt;/span&gt;" style="whiteSpace=wrap;html=1;aspect=fixed;" parent="1" vertex="1">
                    <mxGeometry x="542.5" y="701" width="60" height="60" as="geometry"/>
                </mxCell>
                <mxCell id="55" value="Post&lt;br&gt;Service" style="rounded=0;whiteSpace=wrap;html=1;" parent="1" vertex="1">
                    <mxGeometry x="390" y="404.75" width="60" height="60" as="geometry"/>
                </mxCell>
                <mxCell id="DDFgqJIRZyD7DjnSiCl7-64" style="edgeStyle=none;html=1;" parent="1" source="56" target="35" edge="1">
                    <mxGeometry relative="1" as="geometry"/>
                </mxCell>
                <mxCell id="56" value="Anime&lt;br&gt;Service" style="rounded=0;whiteSpace=wrap;html=1;" parent="1" vertex="1">
                    <mxGeometry x="390" y="504.75" width="60" height="60" as="geometry"/>
                </mxCell>
                <mxCell id="57" value="User&lt;br&gt;Service" style="rounded=0;whiteSpace=wrap;html=1;" parent="1" vertex="1">
                    <mxGeometry x="390" y="604.75" width="60" height="60" as="geometry"/>
                </mxCell>
                <mxCell id="58" value="Topic&lt;br&gt;Service" style="rounded=0;whiteSpace=wrap;html=1;" parent="1" vertex="1">
                    <mxGeometry x="390" y="701" width="60" height="60" as="geometry"/>
                </mxCell>
                <mxCell id="62" value="" style="endArrow=classic;html=1;entryX=0;entryY=0.25;entryDx=0;entryDy=0;exitX=1;exitY=0.25;exitDx=0;exitDy=0;rounded=0;curved=0;" parent="1" source="43" target="55" edge="1">
                    <mxGeometry width="50" height="50" relative="1" as="geometry">
                        <mxPoint x="-30" y="490" as="sourcePoint"/>
                        <mxPoint x="20" y="440" as="targetPoint"/>
                        <Array as="points">
                            <mxPoint x="300" y="320"/>
                            <mxPoint x="300" y="420"/>
                        </Array>
                    </mxGeometry>
                </mxCell>
                <mxCell id="63" value="" style="endArrow=classic;html=1;entryX=0;entryY=0.5;entryDx=0;entryDy=0;exitX=1;exitY=0.5;exitDx=0;exitDy=0;" parent="1" source="55" target="34" edge="1">
                    <mxGeometry width="50" height="50" relative="1" as="geometry">
                        <mxPoint x="442.5" y="491" as="sourcePoint"/>
                        <mxPoint x="492.5" y="441" as="targetPoint"/>
                    </mxGeometry>
                </mxCell>
                <mxCell id="R2yVV-g7roi1aGbfgLEV-63" value="" style="endArrow=classic;startArrow=none;html=1;entryX=0;entryY=0.5;entryDx=0;entryDy=0;exitX=1;exitY=0.5;exitDx=0;exitDy=0;startFill=0;" parent="1" source="57" target="36" edge="1">
                    <mxGeometry width="50" height="50" relative="1" as="geometry">
                        <mxPoint x="500" y="634.38" as="sourcePoint"/>
                        <mxPoint x="550" y="634.38" as="targetPoint"/>
                    </mxGeometry>
                </mxCell>
                <mxCell id="R2yVV-g7roi1aGbfgLEV-64" value="" style="endArrow=classic;startArrow=none;html=1;entryX=0;entryY=0.5;entryDx=0;entryDy=0;exitX=1;exitY=0.5;exitDx=0;exitDy=0;startFill=0;" parent="1" source="58" edge="1">
                    <mxGeometry width="50" height="50" relative="1" as="geometry">
                        <mxPoint x="500" y="730.63" as="sourcePoint"/>
                        <mxPoint x="542.5" y="731.25" as="targetPoint"/>
                    </mxGeometry>
                </mxCell>
                <mxCell id="68" value="Publisher" style="rounded=0;whiteSpace=wrap;html=1;" parent="1" vertex="1">
                    <mxGeometry x="-59.5" y="670" width="90" height="60" as="geometry"/>
                </mxCell>
                <mxCell id="70" value="" style="endArrow=classic;html=1;entryX=0;entryY=0.5;entryDx=0;entryDy=0;exitX=1;exitY=0.75;exitDx=0;exitDy=0;" parent="1" source="68" target="58" edge="1">
                    <mxGeometry width="50" height="50" relative="1" as="geometry">
                        <mxPoint x="-10" y="650" as="sourcePoint"/>
                        <mxPoint x="40" y="600" as="targetPoint"/>
                    </mxGeometry>
                </mxCell>
                <mxCell id="72" value="Feed&lt;br&gt;Generator" style="rounded=0;whiteSpace=wrap;html=1;" parent="1" vertex="1">
                    <mxGeometry x="-60" y="580" width="90.5" height="60" as="geometry"/>
                </mxCell>
                <mxCell id="DDFgqJIRZyD7DjnSiCl7-72" value="Achievements&lt;div&gt;Controller&lt;/div&gt;" style="rounded=0;whiteSpace=wrap;html=1;" parent="1" vertex="1">
                    <mxGeometry x="-300" y="760" width="90" height="60" as="geometry"/>
                </mxCell>
                <mxCell id="74" value="" style="endArrow=classic;html=1;entryX=0;entryY=0.5;entryDx=0;entryDy=0;exitX=1;exitY=0.75;exitDx=0;exitDy=0;" parent="1" source="72" target="57" edge="1">
                    <mxGeometry width="50" height="50" relative="1" as="geometry">
                        <mxPoint x="-140" y="570" as="sourcePoint"/>
                        <mxPoint x="-90" y="520" as="targetPoint"/>
                    </mxGeometry>
                </mxCell>
                <mxCell id="75" value="/image" style="text;html=1;align=center;verticalAlign=middle;resizable=0;points=[];autosize=1;strokeColor=none;fillColor=none;" parent="1" vertex="1">
                    <mxGeometry x="-389.75" y="220" width="60" height="30" as="geometry"/>
                </mxCell>
                <mxCell id="77" value="" style="endArrow=classic;html=1;entryX=0;entryY=0.75;entryDx=0;entryDy=0;exitX=1;exitY=0.5;exitDx=0;exitDy=0;" parent="1" source="68" target="57" edge="1">
                    <mxGeometry width="50" height="50" relative="1" as="geometry">
                        <mxPoint x="-60" y="590" as="sourcePoint"/>
                        <mxPoint x="-10" y="540" as="targetPoint"/>
                    </mxGeometry>
                </mxCell>
                <mxCell id="78" value="Topic&lt;br&gt;Controller" style="rounded=0;whiteSpace=wrap;html=1;" parent="1" vertex="1">
                    <mxGeometry x="-300" y="580" width="90.5" height="60" as="geometry"/>
                </mxCell>
                <mxCell id="80" value="" style="endArrow=classic;html=1;entryX=0;entryY=0.5;entryDx=0;entryDy=0;exitX=1;exitY=0.5;exitDx=0;exitDy=0;" parent="1" source="78" target="68" edge="1">
                    <mxGeometry width="50" height="50" relative="1" as="geometry">
                        <mxPoint x="-200" y="520" as="sourcePoint"/>
                        <mxPoint x="-150" y="470" as="targetPoint"/>
                    </mxGeometry>
                </mxCell>
                <mxCell id="3nlse7nU_7aJ0FhMdwJK-82" value="Anime Controller" style="rounded=0;whiteSpace=wrap;html=1;" parent="1" vertex="1">
                    <mxGeometry x="-299.75" y="310" width="90.5" height="60" as="geometry"/>
                </mxCell>
                <mxCell id="3nlse7nU_7aJ0FhMdwJK-83" value="/notification" style="text;html=1;align=center;verticalAlign=middle;resizable=0;points=[];autosize=1;strokeColor=none;fillColor=none;" parent="1" vertex="1">
                    <mxGeometry x="-410" y="130" width="80" height="30" as="geometry"/>
                </mxCell>
                <mxCell id="3nlse7nU_7aJ0FhMdwJK-84" value="Notification Controller" style="rounded=0;whiteSpace=wrap;html=1;" parent="1" vertex="1">
                    <mxGeometry x="-60.25" y="140" width="90.5" height="60" as="geometry"/>
                </mxCell>
                <mxCell id="3nlse7nU_7aJ0FhMdwJK-85" value="User Controller" style="rounded=0;whiteSpace=wrap;html=1;" parent="1" vertex="1">
                    <mxGeometry x="-300" y="480" width="90.5" height="60" as="geometry"/>
                </mxCell>
                <mxCell id="83" value="/achievements" style="text;html=1;align=center;verticalAlign=middle;resizable=0;points=[];autosize=1;strokeColor=none;fillColor=none;" parent="1" vertex="1">
                    <mxGeometry x="-420" y="761" width="100" height="30" as="geometry"/>
                </mxCell>
                <mxCell id="81" value="/user" style="text;html=1;align=center;verticalAlign=middle;resizable=0;points=[];autosize=1;strokeColor=none;fillColor=none;" parent="1" vertex="1">
                    <mxGeometry x="-370" y="485" width="50" height="30" as="geometry"/>
                </mxCell>
                <mxCell id="76" value="/topics" style="text;html=1;align=center;verticalAlign=middle;resizable=0;points=[];autosize=1;strokeColor=none;fillColor=none;" parent="1" vertex="1">
                    <mxGeometry x="-400" y="581" width="60" height="30" as="geometry"/>
                </mxCell>
                <mxCell id="3nlse7nU_7aJ0FhMdwJK-81" value="/anime" style="text;html=1;align=center;verticalAlign=middle;resizable=0;points=[];autosize=1;strokeColor=none;fillColor=none;" parent="1" vertex="1">
                    <mxGeometry x="-380" y="302.25" width="60" height="30" as="geometry"/>
                </mxCell>
                <mxCell id="R2yVV-g7roi1aGbfgLEV-91" value="User&lt;div&gt;Recommendations&lt;/div&gt;" style="rounded=0;whiteSpace=wrap;html=1;" parent="1" vertex="1">
                    <mxGeometry x="-69.25" y="480" width="109.5" height="60" as="geometry"/>
                </mxCell>
                <mxCell id="R2yVV-g7roi1aGbfgLEV-93" value="" style="endArrow=classic;html=1;" parent="1" source="3nlse7nU_7aJ0FhMdwJK-85" target="R2yVV-g7roi1aGbfgLEV-91" edge="1">
                    <mxGeometry width="50" height="50" relative="1" as="geometry">
                        <mxPoint x="-199" y="420" as="sourcePoint"/>
                        <mxPoint x="-79" y="450" as="targetPoint"/>
                    </mxGeometry>
                </mxCell>
                <mxCell id="R2yVV-g7roi1aGbfgLEV-94" value="" style="endArrow=classic;html=1;" parent="1" source="R2yVV-g7roi1aGbfgLEV-91" target="57" edge="1">
                    <mxGeometry width="50" height="50" relative="1" as="geometry">
                        <mxPoint x="11" y="469" as="sourcePoint"/>
                        <mxPoint x="400" y="630" as="targetPoint"/>
                    </mxGeometry>
                </mxCell>
                <mxCell id="R2yVV-g7roi1aGbfgLEV-95" value="" style="endArrow=classic;html=1;exitX=1;exitY=0.5;exitDx=0;exitDy=0;" parent="1" source="R2yVV-g7roi1aGbfgLEV-91" target="55" edge="1">
                    <mxGeometry width="50" height="50" relative="1" as="geometry">
                        <mxPoint x="30" y="544" as="sourcePoint"/>
                        <mxPoint x="400" y="637" as="targetPoint"/>
                    </mxGeometry>
                </mxCell>
                <mxCell id="3nlse7nU_7aJ0FhMdwJK-93" value="" style="endArrow=classic;html=1;exitX=1;exitY=0.5;exitDx=0;exitDy=0;entryX=-0.011;entryY=0.886;entryDx=0;entryDy=0;entryPerimeter=0;" parent="1" source="155" target="57" edge="1">
                    <mxGeometry width="50" height="50" relative="1" as="geometry">
                        <mxPoint x="110" y="640" as="sourcePoint"/>
                        <mxPoint x="380" y="670" as="targetPoint"/>
                    </mxGeometry>
                </mxCell>
                <mxCell id="98" value="" style="endArrow=classic;html=1;entryX=0;entryY=0.75;entryDx=0;entryDy=0;exitX=1;exitY=0.5;exitDx=0;exitDy=0;" parent="1" source="72" target="55" edge="1">
                    <mxGeometry width="50" height="50" relative="1" as="geometry">
                        <mxPoint x="-9" y="595" as="sourcePoint"/>
                        <mxPoint x="152.00983682847982" y="539.7380792547384" as="targetPoint"/>
                    </mxGeometry>
                </mxCell>
                <mxCell id="R2yVV-g7roi1aGbfgLEV-98" value="Anime List" style="rounded=0;whiteSpace=wrap;html=1;" parent="1" vertex="1">
                    <mxGeometry x="-59.25" y="310" width="90" height="60" as="geometry"/>
                </mxCell>
                <mxCell id="99" value="" style="endArrow=classic;html=1;entryX=0;entryY=0.5;entryDx=0;entryDy=0;exitX=1;exitY=0.5;exitDx=0;exitDy=0;" parent="1" source="3nlse7nU_7aJ0FhMdwJK-82" target="R2yVV-g7roi1aGbfgLEV-98" edge="1">
                    <mxGeometry width="50" height="50" relative="1" as="geometry">
                        <mxPoint x="80.25" y="300" as="sourcePoint"/>
                        <mxPoint x="130.25" y="250" as="targetPoint"/>
                    </mxGeometry>
                </mxCell>
                <mxCell id="100" value="" style="endArrow=classic;html=1;entryX=0;entryY=0.25;entryDx=0;entryDy=0;" parent="1" source="R2yVV-g7roi1aGbfgLEV-98" target="56" edge="1">
                    <mxGeometry width="50" height="50" relative="1" as="geometry">
                        <mxPoint x="80" y="370" as="sourcePoint"/>
                        <mxPoint x="110" y="362" as="targetPoint"/>
                    </mxGeometry>
                </mxCell>
                <mxCell id="101" value="" style="endArrow=classic;html=1;entryX=0;entryY=0.5;entryDx=0;entryDy=0;exitX=1;exitY=0.5;exitDx=0;exitDy=0;" parent="1" source="103" target="29" edge="1">
                    <mxGeometry width="50" height="50" relative="1" as="geometry">
                        <mxPoint x="200" y="332" as="sourcePoint"/>
                        <mxPoint x="140" y="440" as="targetPoint"/>
                    </mxGeometry>
                </mxCell>
                <mxCell id="103" value="" style="ellipse;whiteSpace=wrap;html=1;aspect=fixed;" parent="1" vertex="1">
                    <mxGeometry x="260" y="357.25" width="10" height="10" as="geometry"/>
                </mxCell>
                <mxCell id="104" value="" style="endArrow=none;html=1;entryX=0;entryY=0.5;entryDx=0;entryDy=0;exitX=1;exitY=0.25;exitDx=0;exitDy=0;" parent="1" source="R2yVV-g7roi1aGbfgLEV-98" target="103" edge="1">
                    <mxGeometry width="50" height="50" relative="1" as="geometry">
                        <mxPoint x="80" y="440" as="sourcePoint"/>
                        <mxPoint x="130" y="390" as="targetPoint"/>
                    </mxGeometry>
                </mxCell>
                <mxCell id="106" value="" style="endArrow=none;html=1;entryX=0;entryY=1;entryDx=0;entryDy=0;exitX=1;exitY=0.25;exitDx=0;exitDy=0;" parent="1" source="R2yVV-g7roi1aGbfgLEV-91" target="103" edge="1">
                    <mxGeometry width="50" height="50" relative="1" as="geometry">
                        <mxPoint x="70" y="530" as="sourcePoint"/>
                        <mxPoint x="120" y="480" as="targetPoint"/>
                    </mxGeometry>
                </mxCell>
                <mxCell id="110" value="" style="endArrow=none;html=1;entryX=0.5;entryY=1;entryDx=0;entryDy=0;exitX=1;exitY=0.25;exitDx=0;exitDy=0;" parent="1" source="68" target="103" edge="1">
                    <mxGeometry width="50" height="50" relative="1" as="geometry">
                        <mxPoint x="90" y="610" as="sourcePoint"/>
                        <mxPoint x="140" y="560" as="targetPoint"/>
                    </mxGeometry>
                </mxCell>
                <mxCell id="111" value="" style="endArrow=none;html=1;entryX=0.5;entryY=1;entryDx=0;entryDy=0;exitX=1;exitY=0.25;exitDx=0;exitDy=0;" parent="1" source="155" target="103" edge="1">
                    <mxGeometry width="50" height="50" relative="1" as="geometry">
                        <mxPoint x="120" y="630" as="sourcePoint"/>
                        <mxPoint x="170" y="580" as="targetPoint"/>
                    </mxGeometry>
                </mxCell>
                <mxCell id="113" value="" style="endArrow=none;html=1;entryX=1;entryY=0.5;entryDx=0;entryDy=0;exitX=0;exitY=0;exitDx=0;exitDy=0;" parent="1" source="103" target="3nlse7nU_7aJ0FhMdwJK-84" edge="1">
                    <mxGeometry width="50" height="50" relative="1" as="geometry">
                        <mxPoint x="90" y="350" as="sourcePoint"/>
                        <mxPoint x="140" y="300" as="targetPoint"/>
                    </mxGeometry>
                </mxCell>
                <mxCell id="R2yVV-g7roi1aGbfgLEV-114" value="" style="endArrow=classic;html=1;" parent="1" source="R2yVV-g7roi1aGbfgLEV-91" target="58" edge="1">
                    <mxGeometry width="50" height="50" relative="1" as="geometry">
                        <mxPoint x="60" y="546" as="sourcePoint"/>
                        <mxPoint x="400" y="637" as="targetPoint"/>
                    </mxGeometry>
                </mxCell>
                <mxCell id="R2yVV-g7roi1aGbfgLEV-115" value="Anime List:&amp;nbsp;&lt;div&gt;Generate similar anime&lt;/div&gt;&lt;div&gt;Search anime by genre&amp;nbsp;&lt;/div&gt;" style="text;html=1;align=center;verticalAlign=middle;resizable=0;points=[];autosize=1;strokeColor=none;fillColor=none;" parent="1" vertex="1">
                    <mxGeometry x="-404.75" y="1000" width="160" height="60" as="geometry"/>
                </mxCell>
                <mxCell id="116" value="User Recommendations:&lt;div&gt;Links users based on anime preferences&lt;/div&gt;&lt;div&gt;Links users based on their messages&lt;/div&gt;&lt;div&gt;Links users based on topics&lt;/div&gt;&lt;div&gt;&lt;span style=&quot;background-color: transparent;&quot;&gt;Recommendation of anime based on the user&#39;s topics of interest analisys.&lt;/span&gt;&lt;br&gt;&lt;/div&gt;" style="text;html=1;align=center;verticalAlign=middle;resizable=0;points=[];autosize=1;strokeColor=none;fillColor=none;" parent="1" vertex="1">
                    <mxGeometry x="-549.75" y="890" width="440" height="90" as="geometry"/>
                </mxCell>
                <mxCell id="DDFgqJIRZyD7DjnSiCl7-120" value="Feed Generator:&lt;div&gt;General feed&lt;/div&gt;&lt;div&gt;Topic recomendations for users&lt;/div&gt;" style="text;html=1;align=center;verticalAlign=middle;whiteSpace=wrap;rounded=0;" parent="1" vertex="1">
                    <mxGeometry x="-90" y="885" width="209.5" height="80" as="geometry"/>
                </mxCell>
                <mxCell id="DDFgqJIRZyD7DjnSiCl7-121" value="Publisher:&lt;div&gt;&lt;div&gt;create topics that do not exist on the forum.&lt;/div&gt;&lt;div&gt;publish a message or image in a specific topic.&lt;/div&gt;&lt;/div&gt;&lt;div&gt;Karma system for the user&lt;/div&gt;" style="text;html=1;align=center;verticalAlign=middle;whiteSpace=wrap;rounded=0;" parent="1" vertex="1">
                    <mxGeometry x="160" y="885" width="180" height="115" as="geometry"/>
                </mxCell>
                <mxCell id="117" value="Achievement Controller:&lt;div&gt;show achivement list&lt;/div&gt;&lt;div&gt;show an achievement&lt;/div&gt;&lt;div&gt;add achievement to user&lt;/div&gt;" style="text;html=1;align=center;verticalAlign=middle;resizable=0;points=[];autosize=1;strokeColor=none;fillColor=none;" parent="1" vertex="1">
                    <mxGeometry x="190" y="1010" width="150" height="70" as="geometry"/>
                </mxCell>
                <mxCell id="118" value="Label Generation:&lt;br&gt;&lt;div&gt;send the image for keyword generation.&lt;/div&gt;&lt;div&gt;search image by keyword.&lt;/div&gt;" style="text;html=1;align=center;verticalAlign=middle;resizable=0;points=[];autosize=1;strokeColor=none;fillColor=none;" parent="1" vertex="1">
                    <mxGeometry x="417.5" y="905" width="230" height="60" as="geometry"/>
                </mxCell>
                <mxCell id="130" value="gRPC Communication" style="text;html=1;align=center;verticalAlign=middle;resizable=0;points=[];autosize=1;strokeColor=none;fillColor=none;" parent="1" vertex="1">
                    <mxGeometry x="502.5" y="140" width="140" height="30" as="geometry"/>
                </mxCell>
                <mxCell id="131" value="" style="shape=flexArrow;endArrow=classic;html=1;" parent="1" edge="1">
                    <mxGeometry width="50" height="50" relative="1" as="geometry">
                        <mxPoint x="-690" y="510" as="sourcePoint"/>
                        <mxPoint x="-620" y="510" as="targetPoint"/>
                    </mxGeometry>
                </mxCell>
                <mxCell id="132" value="" style="endArrow=classic;html=1;" parent="1" edge="1">
                    <mxGeometry width="50" height="50" relative="1" as="geometry">
                        <mxPoint x="450" y="154.66" as="sourcePoint"/>
                        <mxPoint x="498" y="154.66" as="targetPoint"/>
                    </mxGeometry>
                </mxCell>
                <mxCell id="R2yVV-g7roi1aGbfgLEV-140" value="" style="endArrow=classic;html=1;entryX=0;entryY=0.25;entryDx=0;entryDy=0;exitX=1;exitY=1;exitDx=0;exitDy=0;" parent="1" source="3nlse7nU_7aJ0FhMdwJK-85" target="155" edge="1">
                    <mxGeometry width="50" height="50" relative="1" as="geometry">
                        <mxPoint x="-199" y="520" as="sourcePoint"/>
                        <mxPoint x="-59" y="520" as="targetPoint"/>
                    </mxGeometry>
                </mxCell>
                <mxCell id="141" value="" style="endArrow=classic;html=1;entryX=0;entryY=0.5;entryDx=0;entryDy=0;exitX=1;exitY=0.5;exitDx=0;exitDy=0;dashed=1;" parent="1" source="47" target="45" edge="1">
                    <mxGeometry width="50" height="50" relative="1" as="geometry">
                        <mxPoint x="620" y="600" as="sourcePoint"/>
                        <mxPoint x="670" y="550" as="targetPoint"/>
                    </mxGeometry>
                </mxCell>
                <mxCell id="142" value="" style="endArrow=classic;html=1;entryX=0;entryY=0.5;entryDx=0;entryDy=0;exitX=1;exitY=0.5;exitDx=0;exitDy=0;dashed=1;" parent="1" source="36" target="R2yVV-g7roi1aGbfgLEV-1" edge="1">
                    <mxGeometry width="50" height="50" relative="1" as="geometry">
                        <mxPoint x="613" y="741" as="sourcePoint"/>
                        <mxPoint x="663" y="741" as="targetPoint"/>
                    </mxGeometry>
                </mxCell>
                <mxCell id="143" value="" style="endArrow=classic;html=1;entryX=0;entryY=0.5;entryDx=0;entryDy=0;exitX=1;exitY=0.5;exitDx=0;exitDy=0;dashed=1;" parent="1" source="29" target="30" edge="1">
                    <mxGeometry width="50" height="50" relative="1" as="geometry">
                        <mxPoint x="623" y="751" as="sourcePoint"/>
                        <mxPoint x="673" y="751" as="targetPoint"/>
                    </mxGeometry>
                </mxCell>
                <mxCell id="144" value="" style="endArrow=classic;html=1;entryX=0;entryY=0.5;entryDx=0;entryDy=0;exitX=1;exitY=0.5;exitDx=0;exitDy=0;dashed=1;" parent="1" source="34" target="18" edge="1">
                    <mxGeometry width="50" height="50" relative="1" as="geometry">
                        <mxPoint x="633" y="761" as="sourcePoint"/>
                        <mxPoint x="683" y="761" as="targetPoint"/>
                    </mxGeometry>
                </mxCell>
                <mxCell id="145" value="" style="endArrow=classic;html=1;entryX=0;entryY=0.5;entryDx=0;entryDy=0;exitX=1;exitY=0.5;exitDx=0;exitDy=0;dashed=1;" parent="1" source="35" target="DDFgqJIRZyD7DjnSiCl7-17" edge="1">
                    <mxGeometry width="50" height="50" relative="1" as="geometry">
                        <mxPoint x="643" y="771" as="sourcePoint"/>
                        <mxPoint x="693" y="771" as="targetPoint"/>
                    </mxGeometry>
                </mxCell>
                <mxCell id="147" value="" style="endArrow=classic;html=1;dashed=1;" parent="1" edge="1">
                    <mxGeometry width="50" height="50" relative="1" as="geometry">
                        <mxPoint x="449" y="185" as="sourcePoint"/>
                        <mxPoint x="495" y="184.93103448275863" as="targetPoint"/>
                    </mxGeometry>
                </mxCell>
                <mxCell id="148" value="SQL Communication" style="text;html=1;align=center;verticalAlign=middle;resizable=0;points=[];autosize=1;strokeColor=none;fillColor=none;" parent="1" vertex="1">
                    <mxGeometry x="507.5" y="170" width="130" height="30" as="geometry"/>
                </mxCell>
                <mxCell id="3nlse7nU_7aJ0FhMdwJK-149" value="User statistics" style="rounded=0;whiteSpace=wrap;html=1;" parent="1" vertex="1">
                    <mxGeometry x="-59.25" y="392.25" width="90" height="60" as="geometry"/>
                </mxCell>
                <mxCell id="3nlse7nU_7aJ0FhMdwJK-150" value="" style="endArrow=classic;html=1;entryX=0;entryY=0.5;entryDx=0;entryDy=0;exitX=1;exitY=0.25;exitDx=0;exitDy=0;" parent="1" source="3nlse7nU_7aJ0FhMdwJK-85" target="3nlse7nU_7aJ0FhMdwJK-149" edge="1">
                    <mxGeometry width="50" height="50" relative="1" as="geometry">
                        <mxPoint x="-50" y="500" as="sourcePoint"/>
                        <mxPoint y="450" as="targetPoint"/>
                    </mxGeometry>
                </mxCell>
                <mxCell id="3nlse7nU_7aJ0FhMdwJK-151" value="" style="endArrow=classic;html=1;entryX=0;entryY=0.5;entryDx=0;entryDy=0;exitX=1;exitY=0.5;exitDx=0;exitDy=0;" parent="1" source="3nlse7nU_7aJ0FhMdwJK-149" target="55" edge="1">
                    <mxGeometry width="50" height="50" relative="1" as="geometry">
                        <mxPoint x="180" y="470" as="sourcePoint"/>
                        <mxPoint x="230" y="420" as="targetPoint"/>
                    </mxGeometry>
                </mxCell>
                <mxCell id="3nlse7nU_7aJ0FhMdwJK-152" value="" style="endArrow=classic;html=1;entryX=0;entryY=0.25;entryDx=0;entryDy=0;exitX=1;exitY=0.5;exitDx=0;exitDy=0;" parent="1" source="3nlse7nU_7aJ0FhMdwJK-149" target="57" edge="1">
                    <mxGeometry width="50" height="50" relative="1" as="geometry">
                        <mxPoint x="41" y="432" as="sourcePoint"/>
                        <mxPoint x="400" y="445" as="targetPoint"/>
                    </mxGeometry>
                </mxCell>
                <mxCell id="149" value="" style="shape=flexArrow;endArrow=classic;html=1;" parent="1" source="9" edge="1">
                    <mxGeometry width="50" height="50" relative="1" as="geometry">
                        <mxPoint x="-680" y="520" as="sourcePoint"/>
                        <mxPoint x="-490" y="510" as="targetPoint"/>
                    </mxGeometry>
                </mxCell>
                <mxCell id="3nlse7nU_7aJ0FhMdwJK-153" value="" style="endArrow=classic;html=1;entryX=0;entryY=0.25;entryDx=0;entryDy=0;exitX=1;exitY=1;exitDx=0;exitDy=0;" parent="1" source="3nlse7nU_7aJ0FhMdwJK-149" target="58" edge="1">
                    <mxGeometry width="50" height="50" relative="1" as="geometry">
                        <mxPoint x="51" y="442" as="sourcePoint"/>
                        <mxPoint x="410" y="455" as="targetPoint"/>
                    </mxGeometry>
                </mxCell>
                <mxCell id="R2yVV-g7roi1aGbfgLEV-149" value="User&amp;nbsp;statistics&lt;div&gt;&lt;div style=&quot;scrollbar-color: light-dark(#e2e2e2, #4b4b4b)&lt;br/&gt;&#x9;&#x9;&#x9;&#x9;&#x9;light-dark(#fbfbfb, var(--dark-panel-color));&quot;&gt;Create a list of the most used topics&lt;/div&gt;&lt;/div&gt;&lt;div&gt;&lt;br&gt;&lt;/div&gt;" style="text;html=1;align=center;verticalAlign=middle;resizable=0;points=[];autosize=1;strokeColor=none;fillColor=none;" parent="1" vertex="1">
                    <mxGeometry x="-95.25" y="1000" width="220" height="60" as="geometry"/>
                </mxCell>
                <mxCell id="151" value="REST Communication" style="text;html=1;align=center;verticalAlign=middle;resizable=0;points=[];autosize=1;strokeColor=none;fillColor=none;" parent="1" vertex="1">
                    <mxGeometry x="502.5" y="110" width="140" height="30" as="geometry"/>
                </mxCell>
                <mxCell id="152" value="" style="shape=flexArrow;endArrow=classic;html=1;" parent="1" edge="1">
                    <mxGeometry width="50" height="50" relative="1" as="geometry">
                        <mxPoint x="450" y="124.71" as="sourcePoint"/>
                        <mxPoint x="494" y="124.71" as="targetPoint"/>
                    </mxGeometry>
                </mxCell>
                <mxCell id="3nlse7nU_7aJ0FhMdwJK-154" value="" style="endArrow=classic;html=1;exitX=1;exitY=0.75;exitDx=0;exitDy=0;entryX=0;entryY=0.25;entryDx=0;entryDy=0;" parent="1" source="3nlse7nU_7aJ0FhMdwJK-85" target="72" edge="1">
                    <mxGeometry width="50" height="50" relative="1" as="geometry">
                        <mxPoint x="-50" y="740" as="sourcePoint"/>
                        <mxPoint y="690" as="targetPoint"/>
                    </mxGeometry>
                </mxCell>
                <mxCell id="3nlse7nU_7aJ0FhMdwJK-155" value="" style="endArrow=classic;html=1;exitX=1;exitY=1;exitDx=0;exitDy=0;entryX=0;entryY=0.5;entryDx=0;entryDy=0;" parent="1" source="72" target="58" edge="1">
                    <mxGeometry width="50" height="50" relative="1" as="geometry">
                        <mxPoint x="120" y="690" as="sourcePoint"/>
                        <mxPoint x="170" y="640" as="targetPoint"/>
                    </mxGeometry>
                </mxCell>
                <mxCell id="3nlse7nU_7aJ0FhMdwJK-156" value="" style="endArrow=none;html=1;exitX=1;exitY=0.5;exitDx=0;exitDy=0;endFill=0;" parent="1" source="3nlse7nU_7aJ0FhMdwJK-149" edge="1">
                    <mxGeometry width="50" height="50" relative="1" as="geometry">
                        <mxPoint x="70" y="550" as="sourcePoint"/>
                        <mxPoint x="260" y="362" as="targetPoint"/>
                    </mxGeometry>
                </mxCell>
                <mxCell id="3nlse7nU_7aJ0FhMdwJK-157" value="" style="endArrow=none;html=1;entryX=0;entryY=1;entryDx=0;entryDy=0;exitX=1;exitY=0;exitDx=0;exitDy=0;" parent="1" source="72" target="103" edge="1">
                    <mxGeometry width="50" height="50" relative="1" as="geometry">
                        <mxPoint x="41" y="695" as="sourcePoint"/>
                        <mxPoint x="275" y="377" as="targetPoint"/>
                    </mxGeometry>
                </mxCell>
                <mxCell id="153" value="" style="endArrow=none;html=1;entryX=0;entryY=0;entryDx=0;entryDy=0;exitX=1;exitY=0.5;exitDx=0;exitDy=0;" parent="1" source="43" target="103" edge="1">
                    <mxGeometry width="50" height="50" relative="1" as="geometry">
                        <mxPoint x="-210" y="260" as="sourcePoint"/>
                        <mxPoint x="150" y="450" as="targetPoint"/>
                    </mxGeometry>
                </mxCell>
                <mxCell id="155" value="Achievements" style="rounded=0;whiteSpace=wrap;html=1;" parent="1" vertex="1">
                    <mxGeometry x="-60.25" y="760" width="90" height="60" as="geometry"/>
                </mxCell>
                <mxCell id="156" value="" style="endArrow=classic;html=1;entryX=0;entryY=0.5;entryDx=0;entryDy=0;" parent="1" source="DDFgqJIRZyD7DjnSiCl7-72" target="155" edge="1">
                    <mxGeometry width="50" height="50" relative="1" as="geometry">
                        <mxPoint x="-224" y="550" as="sourcePoint"/>
                        <mxPoint x="-50" y="800" as="targetPoint"/>
                    </mxGeometry>
                </mxCell>
                <mxCell id="157" value="" style="shape=flexArrow;endArrow=classic;html=1;exitX=0.25;exitY=0;exitDx=0;exitDy=0;entryX=0;entryY=0.5;entryDx=0;entryDy=0;" parent="1" source="12" target="3nlse7nU_7aJ0FhMdwJK-84" edge="1">
                    <mxGeometry width="50" height="50" relative="1" as="geometry">
                        <mxPoint x="-490" y="279" as="sourcePoint"/>
                        <mxPoint x="-446" y="279" as="targetPoint"/>
                        <Array as="points">
                            <mxPoint x="-450" y="170"/>
                        </Array>
                    </mxGeometry>
                </mxCell>
                <mxCell id="158" value="" style="shape=flexArrow;endArrow=classic;html=1;exitX=0.5;exitY=0;exitDx=0;exitDy=0;entryX=0;entryY=0.5;entryDx=0;entryDy=0;" parent="1" source="12" target="43" edge="1">
                    <mxGeometry width="50" height="50" relative="1" as="geometry">
                        <mxPoint x="-389.75" y="279" as="sourcePoint"/>
                        <mxPoint x="-345.75" y="279" as="targetPoint"/>
                        <Array as="points">
                            <mxPoint x="-430" y="250"/>
                        </Array>
                    </mxGeometry>
                </mxCell>
                <mxCell id="159" value="" style="shape=flexArrow;endArrow=classic;html=1;entryX=0;entryY=0.5;entryDx=0;entryDy=0;exitX=0.75;exitY=0;exitDx=0;exitDy=0;" parent="1" source="12" target="3nlse7nU_7aJ0FhMdwJK-82" edge="1">
                    <mxGeometry width="50" height="50" relative="1" as="geometry">
                        <mxPoint x="-381.75" y="376.75" as="sourcePoint"/>
                        <mxPoint x="-337.75" y="376.75" as="targetPoint"/>
                        <Array as="points">
                            <mxPoint x="-410" y="340"/>
                        </Array>
                    </mxGeometry>
                </mxCell>
                <mxCell id="160" value="" style="shape=flexArrow;endArrow=classic;html=1;exitX=1;exitY=0.75;exitDx=0;exitDy=0;entryX=0.002;entryY=0.576;entryDx=0;entryDy=0;entryPerimeter=0;" parent="1" source="12" target="3nlse7nU_7aJ0FhMdwJK-85" edge="1">
                    <mxGeometry width="50" height="50" relative="1" as="geometry">
                        <mxPoint x="-364" y="452.25" as="sourcePoint"/>
                        <mxPoint x="-320" y="452.25" as="targetPoint"/>
                    </mxGeometry>
                </mxCell>
                <mxCell id="161" value="" style="shape=flexArrow;endArrow=classic;html=1;exitX=0.75;exitY=1;exitDx=0;exitDy=0;entryX=0;entryY=0.5;entryDx=0;entryDy=0;" parent="1" source="5" target="78" edge="1">
                    <mxGeometry width="50" height="50" relative="1" as="geometry">
                        <mxPoint x="-380" y="525" as="sourcePoint"/>
                        <mxPoint x="-290" y="525" as="targetPoint"/>
                        <Array as="points">
                            <mxPoint x="-430" y="610"/>
                        </Array>
                    </mxGeometry>
                </mxCell>
                <mxCell id="162" value="" style="shape=flexArrow;endArrow=classic;html=1;exitX=0.5;exitY=1;exitDx=0;exitDy=0;entryX=0;entryY=0.5;entryDx=0;entryDy=0;" parent="1" source="5" target="DDFgqJIRZyD7DjnSiCl7-72" edge="1">
                    <mxGeometry width="50" height="50" relative="1" as="geometry">
                        <mxPoint x="-420" y="560" as="sourcePoint"/>
                        <mxPoint x="-290" y="620" as="targetPoint"/>
                        <Array as="points">
                            <mxPoint x="-450" y="790"/>
                        </Array>
                    </mxGeometry>
                </mxCell>
                <mxCell id="163" value="" style="endArrow=classic;html=1;" edge="1" parent="1" source="R2yVV-g7roi1aGbfgLEV-91" target="56">
                    <mxGeometry width="50" height="50" relative="1" as="geometry">
                        <mxPoint x="50" y="536" as="sourcePoint"/>
                        <mxPoint x="400" y="636" as="targetPoint"/>
                    </mxGeometry>
                </mxCell>
            </root>
        </mxGraphModel>
    </diagram>
</mxfile>